<svg xmlns="http://www.w3.org/2000/svg" width="109.958" height="58.986" viewBox="0 0 109.958 58.986"><g transform="translate(54.979 29.493)"><g transform="translate(-54.979 -29.493)"><path d="M8.086,351.013v-.021a2.866,2.866,0,0,0,1.842-1.019,2.913,2.913,0,0,0,.627-1.844,3.188,3.188,0,0,0-1.118-2.607,5.405,5.405,0,0,0-3.47-.922H.3v12.943H6.163a5.632,5.632,0,0,0,3.52-.942,3.123,3.123,0,0,0,1.206-2.607,2.864,2.864,0,0,0-.728-1.96A3.225,3.225,0,0,0,8.086,351.013ZM2.934,346.7H5.615q2.137,0,2.137,1.668t-2.137,1.666H2.934Zm4.628,8.354a2.465,2.465,0,0,1-1.628.451h-3v-3.4H5.928a2.554,2.554,0,0,1,1.628.432,1.527,1.527,0,0,1,.53,1.255,1.548,1.548,0,0,1-.53,1.26Z" transform="translate(-0.264 -302.777)" fill="#fff"/><rect width="2.686" height="9.804" transform="translate(12.659 44.96)" fill="#fff"/><path d="M104.641,335.424a2.345,2.345,0,0,0-2.51,0,1.383,1.383,0,0,0-.411,1.092,1.349,1.349,0,0,0,.411,1.068,2.345,2.345,0,0,0,2.51,0,1.349,1.349,0,0,0,.413-1.068A1.367,1.367,0,0,0,104.641,335.424Z" transform="translate(-89.375 -294.395)" fill="#fff"/><path d="M152.059,368.839a3.134,3.134,0,0,0-1.892.549,3.373,3.373,0,0,0-1.147,1.569l-.177-1.922H146.51v9.805H149.2V373.76a2.743,2.743,0,0,1,.353-1.456,2.279,2.279,0,0,1,.9-.862,2.449,2.449,0,0,1,1.137-.285,5.465,5.465,0,0,1,.735.04,2.047,2.047,0,0,1,.485.121l.314-2.263a1.672,1.672,0,0,0-.45-.158A2.941,2.941,0,0,0,152.059,368.839Z" transform="translate(-128.729 -324.074)" fill="#fff"/><path d="M225.89,369.23a3.914,3.914,0,0,0-1.755-.392,4.108,4.108,0,0,0-1.313.216,3.686,3.686,0,0,0-1.177.647,3.143,3.143,0,0,0-.85,1.078,3.067,3.067,0,0,0-1.272-1.45,3.934,3.934,0,0,0-3.8,0,3.381,3.381,0,0,0-1.35,1.471l-.1-1.765H211.86v9.805h2.687v-5.2a3.205,3.205,0,0,1,.324-1.549,2.109,2.109,0,0,1,.824-.863,2.069,2.069,0,0,1,1.01-.274,1.721,1.721,0,0,1,1.223.45,2.021,2.021,0,0,1,.485,1.53v5.9H221.1v-5.275a3.261,3.261,0,0,1,.284-1.442,2.01,2.01,0,0,1,.784-.873,2.118,2.118,0,0,1,1.092-.294,1.691,1.691,0,0,1,1.214.45,2.064,2.064,0,0,1,.47,1.53v5.9h2.687v-6.432a3.844,3.844,0,0,0-.471-2A3.01,3.01,0,0,0,225.89,369.23Z" transform="translate(-186.147 -324.073)" fill="#fff"/><path d="M361.531,335.424a2.345,2.345,0,0,0-2.51,0,1.383,1.383,0,0,0-.411,1.092,1.349,1.349,0,0,0,.411,1.068,2.345,2.345,0,0,0,2.51,0,1.62,1.62,0,0,0,0-2.16Z" transform="translate(-315.087 -294.395)" fill="#fff"/><rect width="2.687" height="9.804" transform="translate(43.838 44.96)" fill="#fff"/><path d="M411.057,369.233a4.369,4.369,0,0,0-3.432-.079,3.254,3.254,0,0,0-1.239.932,3.361,3.361,0,0,0-.471.772l-.1-1.82H403.4v9.805h2.686v-5.2a3.252,3.252,0,0,1,.324-1.568,2,2,0,0,1,.842-.85,2.336,2.336,0,0,1,1.069-.265,1.742,1.742,0,0,1,1.274.485,2.432,2.432,0,0,1,.485,1.736v5.667h2.686v-6.432a3.929,3.929,0,0,0-.46-1.99A2.931,2.931,0,0,0,411.057,369.233Z" transform="translate(-354.441 -324.076)" fill="#fff"/><path d="M502.9,351.219h-.1a2.549,2.549,0,0,0-2.412,1.5,3.344,3.344,0,0,0-.277.942,6.733,6.733,0,0,0-2.115-.3,6.41,6.41,0,0,0-2.392.4,3.471,3.471,0,0,0-1.551,1.147,2.926,2.926,0,0,0-.55,1.785,2.9,2.9,0,0,0,1.157,2.421,3.506,3.506,0,0,0,.413.271,2.652,2.652,0,0,0-.814.455,1.839,1.839,0,0,0-.7,1.481,1.8,1.8,0,0,0,.539,1.382,2.4,2.4,0,0,0,.771.462,2.441,2.441,0,0,0-1.163.507,1.738,1.738,0,0,0-.615,1.357,2.1,2.1,0,0,0,1.166,1.844,7.4,7.4,0,0,0,3.7.705,8.437,8.437,0,0,0,2.7-.392,3.972,3.972,0,0,0,1.82-1.166,2.856,2.856,0,0,0,.647-1.892,2.313,2.313,0,0,0-.863-1.921,3.871,3.871,0,0,0-2.452-.687h-3.026a1.741,1.741,0,0,1-.931-.206.682.682,0,0,1-.324-.618.823.823,0,0,1,.348-.642,1.258,1.258,0,0,1,.433-.216,7.816,7.816,0,0,0,1.7.167,6.421,6.421,0,0,0,2.382-.4,3.4,3.4,0,0,0,1.549-1.147,2.925,2.925,0,0,0,.54-1.765,2.96,2.96,0,0,0-.54-1.785,3.061,3.061,0,0,0-.705-.693,1.293,1.293,0,0,1,.411-.689,2,2,0,0,1,1.344-.4,1.786,1.786,0,0,1,.185.01,1.373,1.373,0,0,0,.168.01l-.314-1.921Zm-6.608,12.451h3.315a1.811,1.811,0,0,1,1.058.226.716.716,0,0,1,.295.6.793.793,0,0,1-.324.607,2.56,2.56,0,0,1-.981.45,6.6,6.6,0,0,1-1.676.177,5.288,5.288,0,0,1-2.029-.314q-.734-.314-.735-.863a.772.772,0,0,1,.3-.647,1.231,1.231,0,0,1,.774-.234Zm2.99-5.794a1.869,1.869,0,0,1-1.284.441,1.907,1.907,0,0,1-1.294-.441,1.512,1.512,0,0,1-.51-1.206,1.481,1.481,0,0,1,.51-1.2,1.932,1.932,0,0,1,1.294-.432,1.893,1.893,0,0,1,1.284.432,1.491,1.491,0,0,1,.5,1.2A1.535,1.535,0,0,1,499.284,357.876Z" transform="translate(-433.252 -308.591)" fill="#fff"/><path d="M595.047,339.561a4.048,4.048,0,0,0-1.813-.392,3.75,3.75,0,0,0-1.863.461,3.181,3.181,0,0,0-1.3,1.4V335.07H587.39v14.1h2.686v-5.178a3.311,3.311,0,0,1,.324-1.578,1.987,1.987,0,0,1,.844-.863,2.369,2.369,0,0,1,1.092-.265,1.715,1.715,0,0,1,1.255.485,2.466,2.466,0,0,1,.485,1.755v5.647h2.687v-6.432a3.921,3.921,0,0,0-.461-1.99A2.931,2.931,0,0,0,595.047,339.561Z" transform="translate(-516.1 -294.404)" fill="#fff"/><path d="M688.834,376.438v-3.981a3.556,3.556,0,0,0-.539-2.02,3.288,3.288,0,0,0-1.5-1.206,5.81,5.81,0,0,0-2.255-.4,5.241,5.241,0,0,0-3.034.784,3.541,3.541,0,0,0-1.456,2.079l2.294.705a2.17,2.17,0,0,1,.8-1.236,2.224,2.224,0,0,1,1.276-.371,1.649,1.649,0,0,1,1.75,1.785v.377l-3.373.681a3.838,3.838,0,0,0-2.02.952,2.425,2.425,0,0,0-.711,1.788,2.548,2.548,0,0,0,.392,1.456,2.427,2.427,0,0,0,1.118.892,4.447,4.447,0,0,0,1.726.3,4.524,4.524,0,0,0,1.558-.274,3.538,3.538,0,0,0,1.285-.794,2.3,2.3,0,0,0,.285-.342,1.765,1.765,0,0,0,.2.441,1.9,1.9,0,0,0,.863.715,3.093,3.093,0,0,0,1.236.235,2.838,2.838,0,0,0,1.274-.255l.158-1.666a1.97,1.97,0,0,1-.628.1Q688.835,377.183,688.834,376.438Zm-2.67-1.214a2.089,2.089,0,0,1-.177.9,1.448,1.448,0,0,1-.485.589,2.144,2.144,0,0,1-.705.313,3.3,3.3,0,0,1-.8.1,1.478,1.478,0,0,1-.873-.255.85.85,0,0,1-.364-.745.815.815,0,0,1,.343-.735,3,3,0,0,1,1.01-.364l2.063-.411Z" transform="translate(-597.514 -324.065)" fill="#fff"/><path d="M788.43,369.23a3.914,3.914,0,0,0-1.755-.392,4.108,4.108,0,0,0-1.313.216,3.687,3.687,0,0,0-1.18.653,3.141,3.141,0,0,0-.842,1.078,3.075,3.075,0,0,0-1.285-1.45,3.934,3.934,0,0,0-3.8,0,3.381,3.381,0,0,0-1.341,1.465l-.1-1.765H774.4v9.805h2.686v-5.2a3.205,3.205,0,0,1,.324-1.549,2.11,2.11,0,0,1,.824-.863,2.073,2.073,0,0,1,1.01-.274,1.726,1.726,0,0,1,1.226.45,2.054,2.054,0,0,1,.485,1.53v5.9h2.681v-5.275a3.262,3.262,0,0,1,.284-1.442,2.01,2.01,0,0,1,.784-.873,2.118,2.118,0,0,1,1.092-.294,1.691,1.691,0,0,1,1.214.45,2.068,2.068,0,0,1,.471,1.53v5.9h2.685v-6.432a3.845,3.845,0,0,0-.471-2A3.01,3.01,0,0,0,788.43,369.23Z" transform="translate(-680.414 -324.073)" fill="#fff"/><path d="M22.806,18.64V35.7H33.562V16.49C33.562,7.168,31.555,0,20.657,0A11.308,11.308,0,0,0,10.472,5.589h-.144V.856H0V35.7H10.758V18.354c0-4.518.862-8.888,6.456-8.888C22.734,9.467,22.806,14.623,22.806,18.64Z" fill="#fff"/><path d="M341.526,24.158c-1.79,2.441-4.16,4.231-7.673,4.231a8.036,8.036,0,0,1-8.1-6.738h24.957V18.28C350.706,7.172,344.4,0,334.354,0,323.6,0,315,7.172,315,18.28s8.606,18.283,19.36,18.283a18.939,18.939,0,0,0,14.706-6.885ZM333.351,7.741a6.449,6.449,0,0,1,6.6,6.6h-14.2A7.177,7.177,0,0,1,333.351,7.741Z" transform="translate(-276.769)" fill="#fff"/><path d="M663.579,27.1c-5.377,0-8.6-3.586-8.6-8.821s3.226-8.814,8.6-8.814a6.63,6.63,0,0,1,5.31,2.654l7.1-7.462C672.617,1.214,667.668,0,663.579,0,652.825,0,644.22,7.168,644.22,18.28s8.6,18.28,19.359,18.28c4.089,0,9.038-1.214,12.409-4.66l-7.1-7.454A6.866,6.866,0,0,1,663.579,27.1Z" transform="translate(-566.033)" fill="#fff"/></g></g></svg>